<svg width="24" height="24" viewBox="0 0 24 24" fill="none" xmlns="http://www.w3.org/2000/svg">
<path d="M14 4C14 5.10457 13.1046 6 12 6C10.8955 6 10 5.10457 10 4C10 2.89543 10.8955 2 12 2C13.1046 2 14 2.89543 14 4Z" stroke="white" stroke-width="1.5"/>
<path d="M14 20C14 21.1046 13.1046 22 12 22C10.8955 22 10 21.1046 10 20C10 18.8954 10.8955 18 12 18C13.1046 18 14 18.8954 14 20Z" stroke="white" stroke-width="1.5"/>
<path d="M19.9283 9.73205C18.9717 10.2843 17.7485 9.95658 17.1962 9C16.6439 8.04341 16.9717 6.82023 17.9283 6.26794C18.8848 5.71566 20.108 6.04341 20.6603 7C21.2126 7.95658 20.8848 9.17976 19.9283 9.73205Z" stroke="white" stroke-width="1.5"/>
<path d="M6.07187 17.732C5.11528 18.2843 3.8921 17.9566 3.33982 17C2.78753 16.0434 3.11528 14.8202 4.07187 14.2679C5.02845 13.7157 6.25163 14.0434 6.80392 15C7.3562 15.9566 7.02845 17.1798 6.07187 17.732Z" stroke="white" stroke-width="1.5"/>
<path d="M17.9283 17.732C16.9717 17.1798 16.6439 15.9566 17.1962 15C17.7485 14.0434 18.9717 13.7157 19.9283 14.2679C20.8848 14.8202 21.2126 16.0434 20.6603 17C20.108 17.9566 18.8848 18.2843 17.9283 17.732Z" stroke="white" stroke-width="1.5"/>
<path d="M4.07187 9.73208C3.11528 9.17979 2.78753 7.95661 3.33982 7.00003C3.8921 6.04344 5.11528 5.71569 6.07187 6.26797C7.02845 6.82026 7.3562 8.04344 6.80392 9.00003C6.25163 9.95661 5.02845 10.2844 4.07187 9.73208Z" stroke="white" stroke-width="1.5"/>
</svg>
